<?xml version="1.0" standalone="no"?>
<!DOCTYPE svg PUBLIC "-//W3C//DTD SVG 20010904//EN"
 "http://www.w3.org/TR/2001/REC-SVG-20010904/DTD/svg10.dtd">
<svg version="1.0" xmlns="http://www.w3.org/2000/svg"
 width="48.000000pt" height="48.000000pt" viewBox="0 0 48.000000 48.000000"
 preserveAspectRatio="xMidYMid meet">

<g transform="translate(0.000000,48.000000) scale(0.100000,-0.100000)"
fill="#000000" stroke="none">
<path d="M227 414 c-4 -4 -7 -52 -7 -107 0 -100 0 -100 -20 -82 -16 14 -23 16
-32 7 -10 -10 -3 -22 30 -55 l42 -42 42 42 c33 33 40 45 30 55 -9 9 -16 7 -31
-6 -20 -18 -20 -18 -23 84 -3 95 -11 123 -31 104z"/>
<path d="M67 164 c-14 -15 -6 -65 13 -84 18 -18 33 -20 160 -20 128 0 142 2
161 21 14 14 19 30 17 52 -4 42 -31 43 -38 2 l-5 -30 -135 0 -135 0 -5 29 c-5
29 -20 43 -33 30z"/>
</g>
</svg>
